<svg xmlns="http://www.w3.org/2000/svg" viewBox="0 0 300 270"><defs><linearGradient id="bg" x2="1" y2="1"><stop stop-color="#f4eaf6"/><stop offset="1" stop-color="#faf4ec"/></linearGradient></defs><rect width="300" height="270" fill="url(#bg)"/><circle cx="150" cy="138" r="106" fill="#fffdf9" opacity=".5"/><circle cx="27" cy="225" r="45" fill="#e2d1eb" opacity=".5"/><circle cx="283" cy="30" r="48" fill="#e2d1eb" opacity=".5"/><g fill="none" stroke="#663391" stroke-width="2.7" stroke-linecap="round" stroke-linejoin="round"><path d="M53 163q96-107 194 0-96 90-194 0Z" fill="#fffdf9"/><ellipse cx="151" cy="156" rx="30" ry="37" fill="#cbb2dc"/><ellipse cx="151" cy="156" rx="13" ry="23" fill="#663391"/><circle cx="160" cy="143" r="6" fill="white"/><path d="M53 163q96-107 194 0M65 146l-16-22m37 3-12-27m37 18-8-31m33 26-2-34m27 35 5-33m22 38 11-30m13 40 18-26m0 41 23-18" stroke-width="5"/><path d="m230 71 4 11 11 4-11 4-4 11-4-11-11-4 11-4Z" fill="#8557a5"/></g></svg>