<svg xmlns="http://www.w3.org/2000/svg" viewBox="0 0 300 270"><defs><linearGradient id="bg" x2="1" y2="1"><stop stop-color="#f4eaf6"/><stop offset="1" stop-color="#faf4ec"/></linearGradient></defs><rect width="300" height="270" fill="url(#bg)"/><circle cx="150" cy="138" r="106" fill="#fffdf9" opacity=".5"/><circle cx="27" cy="225" r="45" fill="#e2d1eb" opacity=".5"/><circle cx="283" cy="30" r="48" fill="#e2d1eb" opacity=".5"/><g fill="none" stroke="#663391" stroke-width="2.7" stroke-linecap="round" stroke-linejoin="round"><path d="M128 52C104 58 92 77 93 109v31c0 38 23 69 57 69s57-31 57-69v-31c0-35-21-60-51-60" fill="#f0d9d2"/><path d="M95 119c-7-46 18-83 59-83 38 0 64 35 55 77-16-10-27-28-31-49-11 24-42 47-83 55Z" fill="#664075"/><path d="M116 134q10-8 20 0m27 0q10-8 20 0"/><path d="m150 138-5 24h11m-23 19q17 12 34 0"/><path d="M132 203v23m36-23v23M93 251q7-27 39-25 18 14 36 0 32-2 39 25" fill="#d6bfdf"/><path d="M71 94c-15-23-15-23-28 0-11 18 0 32 14 32s24-14 14-32Z" fill="#bda5d4"/><circle cx="235" cy="170" r="19" fill="#fffdf9"/><circle cx="219" cy="196" r="10" fill="#fffdf9"/><path d="m228 60 4 12 12 4-12 4-4 12-4-12-12-4 12-4Z" fill="#8557a5"/></g></svg>